<svg width="11" height="18" viewBox="0 0 11 18" fill="none" xmlns="http://www.w3.org/2000/svg">
  <path fill-rule="evenodd" clip-rule="evenodd" d="M10.004 0.646545C9.94137 0.583728 9.86699 0.533887 9.78508 0.499879C9.70318 0.46587 9.61537 0.448364 9.52669 0.448364C9.43801 0.448364 9.3502 0.46587 9.26829 0.499879C9.18639 0.533887 9.11201 0.583728 9.04941 0.646545L0.963754 8.7322C0.900937 8.7948 0.851095 8.86918 0.817086 8.95109C0.783078 9.03299 0.765573 9.1208 0.765573 9.20948C0.765573 9.29816 0.783078 9.38597 0.817086 9.46788C0.851095 9.54978 0.900937 9.62416 0.963754 9.68676L9.04941 17.7724C9.11209 17.8351 9.1865 17.8848 9.26839 17.9187C9.35028 17.9527 9.43805 17.9701 9.52669 17.9701C9.61533 17.9701 9.7031 17.9527 9.78499 17.9187C9.86688 17.8848 9.94129 17.8351 10.004 17.7724C10.0666 17.7097 10.1164 17.6353 10.1503 17.5534C10.1842 17.4715 10.2017 17.3838 10.2017 17.2951C10.2017 17.2065 10.1842 17.1187 10.1503 17.0368C10.1164 16.9549 10.0666 16.8805 10.004 16.8179L2.39446 9.20948L10.004 1.6011C10.0668 1.5385 10.1166 1.46412 10.1506 1.38222C10.1846 1.30032 10.2021 1.21251 10.2021 1.12382C10.2021 1.03514 10.1846 0.947331 10.1506 0.865429C10.1166 0.783527 10.0668 0.709144 10.004 0.646545Z" fill="#E21F4D"/>
</svg>
